HIERARCHY
ROOT hip
{
  OFFSET 0 0 0
  CHANNELS 6 Xposition Yposition Zposition Zrotation Yrotation Xrotation
  JOINT abdomen
  {
    OFFSET 0 20.6881 -0.73152
    CHANNELS 3 Zrotation Xrotation Yrotation
    JOINT chest
    {
      OFFSET 0 11.7043 -0.48768
      CHANNELS 3 Zrotation Xrotation Yrotation
      JOINT neck
      {
        OFFSET 0 22.1894 -2.19456
        CHANNELS 3 Zrotation Xrotation Yrotation
        JOINT head
        {
          OFFSET -0.24384 7.07133 1.2192
          CHANNELS 3 Zrotation Xrotation Yrotation
          JOINT leftEye
          {
            OFFSET 4.14528 8.04674 8.04672
            CHANNELS 3 Zrotation Xrotation Yrotation
            End Site
            {
              OFFSET 1 0 0
            }
          }
          JOINT rightEye
          {
            OFFSET -3.6576 8.04674 8.04672
            CHANNELS 3 Zrotation Xrotation Yrotation
            End Site
            {
              OFFSET 1 0 0
            }
          }
        }
      }
      JOINT rCollar
      {
        OFFSET -2.68224 19.2634 -4.8768
        CHANNELS 3 Zrotation Xrotation Yrotation
        JOINT rShldr
        {
          OFFSET -8.77824 -1.95073 1.46304
          CHANNELS 3 Zrotation Xrotation Yrotation
          JOINT rForeArm
          {
            OFFSET -28.1742 -1.7115 0.48768
            CHANNELS 3 Zrotation Xrotation Yrotation
            JOINT rHand
            {
              OFFSET -22.5879 0.773209 7.07136
              CHANNELS 3 Zrotation Xrotation Yrotation
              JOINT rThumb1
              {
                OFFSET -1.2192 -0.487915 3.41376
                CHANNELS 3 Zrotation Xrotation Yrotation
                JOINT rThumb2
                {
                  OFFSET -3.37035 -0.52449 3.41376
                  CHANNELS 3 Zrotation Xrotation Yrotation
                  End Site
                  {
                    OFFSET -1.78271 -1.18214 1.43049
                  }
                }
              }
              JOINT rIndex1
              {
                OFFSET -7.75947 0.938293 5.60832
                CHANNELS 3 Zrotation Xrotation Yrotation
                JOINT rIndex2
                {
                  OFFSET -2.54057 -0.884171 1.56538
                  CHANNELS 3 Zrotation Xrotation Yrotation
                  End Site
                  {
                    OFFSET -1.62519 -0.234802 1.16502
                  }
                }
              }
              JOINT rMid1
              {
                OFFSET -8.24714 1.18213 3.41376
                CHANNELS 3 Zrotation Xrotation Yrotation
                JOINT rMid2
                {
                  OFFSET -3.10165 -0.590103 1.0647
                  CHANNELS 3 Zrotation Xrotation Yrotation
                  End Site
                  {
                    OFFSET -2.48547 -0.328903 0.83742
                  }
                }
              }
              JOINT rRing1
              {
                OFFSET -8.82822 0.546677 1.51678
                CHANNELS 3 Zrotation Xrotation Yrotation
                JOINT rRing2
                {
                  OFFSET -2.60934 -0.819778 -0.0198488
                  CHANNELS 3 Zrotation Xrotation Yrotation
                  End Site
                  {
                    OFFSET -2.33842 -0.294052 0.168128
                  }
                }
              }
              JOINT rPinky1
              {
                OFFSET -8.27202 -0.0477905 -0.4584
                CHANNELS 3 Zrotation Xrotation Yrotation
                JOINT rPinky2
                {
                  OFFSET -1.82734 -0.647385 -0.700984
                  CHANNELS 3 Zrotation Xrotation Yrotation
                  End Site
                  {
                    OFFSET -1.69225 -0.51767 -0.607171
                  }
                }
              }
            }
          }
        }
      }
      JOINT lCollar
      {
        OFFSET 2.68224 19.2634 -4.8768
        CHANNELS 3 Zrotation Xrotation Yrotation
        JOINT lShldr
        {
          OFFSET 8.77824 -1.95073 1.46304
          CHANNELS 3 Zrotation Xrotation Yrotation
          JOINT lForeArm
          {
            OFFSET 28.1742 -1.7115 0.48768
            CHANNELS 3 Zrotation Xrotation Yrotation
            JOINT lHand
            {
              OFFSET 22.5879 0.773209 7.07136
              CHANNELS 3 Zrotation Xrotation Yrotation
              JOINT lThumb1
              {
                OFFSET 1.2192 -0.487915 3.41376
                CHANNELS 3 Zrotation Xrotation Yrotation
                JOINT lThumb2
                {
                  OFFSET 3.37035 -0.52449 3.41376
                  CHANNELS 3 Zrotation Xrotation Yrotation
                  End Site
                  {
                    OFFSET 1.78271 -1.18214 1.43049
                  }
                }
              }
              JOINT lIndex1
              {
                OFFSET 7.75947 0.938293 5.60832
                CHANNELS 3 Zrotation Xrotation Yrotation
                JOINT lIndex2
                {
                  OFFSET 2.54057 -0.884171 1.56538
                  CHANNELS 3 Zrotation Xrotation Yrotation
                  End Site
                  {
                    OFFSET 1.62519 -0.234802 1.16502
                  }
                }
              }
              JOINT lMid1
              {
                OFFSET 8.24714 1.18213 3.41376
                CHANNELS 3 Zrotation Xrotation Yrotation
                JOINT lMid2
                {
                  OFFSET 3.10165 -0.590103 1.0647
                  CHANNELS 3 Zrotation Xrotation Yrotation
                  End Site
                  {
                    OFFSET 2.48547 -0.328903 0.83742
                  }
                }
              }
              JOINT lRing1
              {
                OFFSET 8.82822 0.546677 1.51678
                CHANNELS 3 Zrotation Xrotation Yrotation
                JOINT lRing2
                {
                  OFFSET 2.60934 -0.819778 -0.0198488
                  CHANNELS 3 Zrotation Xrotation Yrotation
                  End Site
                  {
                    OFFSET 2.33842 -0.294052 0.168128
                  }
                }
              }
              JOINT lPinky1
              {
                OFFSET 8.27202 -0.0477905 -0.4584
                CHANNELS 3 Zrotation Xrotation Yrotation
                JOINT lPinky2
                {
                  OFFSET 1.82734 -0.647385 -0.700984
                  CHANNELS 3 Zrotation Xrotation Yrotation
                  End Site
                  {
                    OFFSET 1.69225 -0.51767 -0.607171
                  }
                }
              }
            }
          }
        }
      }
    }
  }
  JOINT rButtock
  {
    OFFSET -8.77824 4.35084 1.2192
    CHANNELS 3 Zrotation Xrotation Yrotation
    JOINT rThigh
    {
      OFFSET 0 -1.70687 -2.19456
      CHANNELS 3 Zrotation Xrotation Yrotation
      JOINT rShin
      {
        OFFSET 0 -36.8199 0.73152
        CHANNELS 3 Zrotation Xrotation Yrotation
        JOINT rFoot
        {
          OFFSET 0.73152 -45.1104 -5.12064
          CHANNELS 3 Zrotation Xrotation Yrotation
          End Site
          {
            OFFSET -1.1221 -3.69964 12.103
          }
        }
      }
    }
  }
  JOINT lButtock
  {
    OFFSET 8.77824 4.35084 1.2192
    CHANNELS 3 Zrotation Xrotation Yrotation
    JOINT lThigh
    {
      OFFSET 0 -1.70687 -2.19456
      CHANNELS 3 Zrotation Xrotation Yrotation
      JOINT lShin
      {
        OFFSET 0 -36.8199 0.73152
        CHANNELS 3 Zrotation Xrotation Yrotation
        JOINT lFoot
        {
          OFFSET -0.73152 -45.1104 -5.12064
          CHANNELS 3 Zrotation Xrotation Yrotation
          End Site
          {
            OFFSET 1.1221 -3.69964 12.103
          }
        }
      }
    }
  }
}
MOTION
Frames:	6
Frame Time:	0.00833333
-191.609 76.1314 -27.8556 0.0 0.0 0.0 -2.96291 0.0018362 -0.0799164 -0.816462 0.0169092 -0.141253 -3.00496e-14 0.0 -1.98785e-16 -8.96705e-14 3.18055e-15 -6.98852e-16 -0.0 0.0 0.0 -0.0 0.0 0.0 -1.45637e-14 -1.58407e-16 9.93923e-17 -3.0937e-13 -3.48494e-15 -2.18663e-15 -5.35541e-12 1.49128e-12 1.27222e-14 -6.12521e-11 -2.19421e-12 -5.40694e-13 -1.44488e-10 -1.52187e-12 -1.10683e-12 -2.49546e-10 -2.62714e-12 -1.90913e-12 -1.44483e-10 -1.52229e-12 -1.11319e-12 7.73091 5.47488 0.417314 -1.44489e-10 -1.5219e-12 -1.10365e-12 2.90554 0.965183 0.102902 -1.44482e-10 -1.5217e-12 -1.10445e-12 10.2786 0.731801 0.0259123 -1.44498e-10 -1.51951e-12 -1.09729e-12 2.22167 -0.733487 -0.20892 -1.4758e-14 -1.52971e-16 -2.98177e-16 -3.12211e-13 -3.18677e-15 -3.57812e-15 -5.3488e-12 -1.71014e-12 3.18055e-15 -6.12345e-11 1.02555e-12 -4.96167e-13 -1.44435e-10 -1.48623e-12 -1.07503e-12 -2.49418e-10 -2.56989e-12 -1.84711e-12 -1.4444e-10 -1.48691e-12 -1.07185e-12 -7.73091 5.47488 -0.417314 -1.44435e-10 -1.48721e-12 -1.08139e-12 -2.90554 0.965183 -0.102902 -1.44435e-10 -1.48631e-12 -1.07423e-12 -10.2786 0.731801 -0.0259123 -1.44427e-10 -1.48293e-12 -1.08139e-12 -2.22167 -0.733487 0.20892 -2.03217e-16 0.0 -3.88251e-19 -1.7721 -1.93398 0.0122132 -0.00866955 -2.07864 -0.0712547 -0.477793 3.99977 0.135281 2.03217e-16 0.0 3.88251e-19 -2.72795 -9.04335 0.303192 -0.00827088 10.7978 -0.214941 0.537759 -1.76716 -0.0241349
-193.585 72.5559 -33.3717 -0.1636 -86.4806 19.8566 -2.12856 10.5721 -1.19988 -0.957661 -1.89942 -0.49318 0.734584 5.28947 0.217599 0.165284 -18.9035 0.0992467 -0.0 0.0 0.0 -0.0 0.0 0.0 -3.07196e-14 2.09432e-12 3.05515e-14 20.912 9.6091 3.53531 -8.77783 -5.65638 11.4234 0.0139646 -2.62181 -0.367078 -3.31107e-10 -3.46994e-10 3.62843e-10 -5.76648e-10 -6.00552e-10 6.26814e-10 -3.31102e-10 -3.46994e-10 3.62836e-10 7.73091 5.47488 0.417314 -3.31107e-10 -3.46994e-10 3.62845e-10 2.90554 0.965183 0.102902 -3.311e-10 -3.46994e-10 3.62843e-10 10.2786 0.731801 0.0259123 -3.31114e-10 -3.46993e-10 3.6285e-10 2.22167 -0.733487 -0.20892 -3.08553e-14 2.09432e-12 3.019e-14 -19.9657 9.43797 -3.27748 7.36064 -4.35026 -10.1962 -0.117262 -7.60852 1.03557 -9.50591e-11 -2.12846e-10 -2.19913e-10 -1.57543e-10 -3.6804e-10 -3.80946e-10 -9.50633e-11 -2.12847e-10 -2.19909e-10 -7.73091 5.47488 -0.417314 -9.50593e-11 -2.12847e-10 -2.19918e-10 -2.90554 0.965183 -0.102902 -9.50603e-11 -2.12846e-10 -2.19912e-10 -10.2786 0.731801 -0.0259123 -9.50516e-11 -2.12843e-10 -2.1992e-10 -2.22167 -0.733487 0.20892 -2.03217e-16 0.0 -3.88251e-19 -0.816883 -19.5018 -1.25209 0.016434 16.8222 0.179622 -0.874183 -2.57842 -2.81688 2.03217e-16 0.0 3.88251e-19 -2.09167 -24.2077 1.58525 0.0110159 25.236 -0.432675 0.710996 -6.00091 0.871979
-193.584 72.5563 -33.3701 -0.0427 -86.482 19.7396 -0.765563 21.732 -2.52195 -1.13205 -3.92481 -0.866895 1.46677 10.8825 0.454075 0.431142 -38.8898 0.249263 -0.0 0.0 0.0 -0.0 0.0 0.0 -4.84103e-14 4.36623e-12 6.358e-14 41.6607 19.644 7.61759 -15.6361 -10.8824 23.8382 -0.00795396 -5.39475 -0.757932 -5.59651e-10 -7.55897e-10 7.97131e-10 -9.77053e-10 -1.30822e-09 1.37697e-09 -5.59648e-10 -7.55896e-10 7.97124e-10 7.73091 5.47488 0.417314 -5.59652e-10 -7.55897e-10 7.97133e-10 2.90554 0.965183 0.102902 -5.59644e-10 -7.55897e-10 7.97129e-10 10.2786 0.731801 0.0259123 -5.59657e-10 -7.55897e-10 7.97135e-10 2.22167 -0.733487 -0.20892 -4.84818e-14 4.36623e-12 6.32539e-14 -39.8383 19.3097 -7.05104 13.476 -8.48405 -21.1512 0.0682209 -15.6406 2.19242 -4.35387e-11 -4.63156e-10 -4.75416e-10 -6.0778e-11 -8.00802e-10 -8.23562e-10 -4.35428e-11 -4.63157e-10 -4.75412e-10 -7.73091 5.47488 -0.417314 -4.35395e-11 -4.63158e-10 -4.75419e-10 -2.90554 0.965183 -0.102902 -4.35419e-11 -4.63157e-10 -4.75416e-10 -10.2786 0.731801 -0.0259123 -4.35317e-11 -4.63155e-10 -4.75424e-10 -2.22167 -0.733487 0.20892 -2.03217e-16 0.0 -3.88251e-19 -0.857703 -38.0416 -3.09956 -0.173857 36.803 0.535872 -2.03686 -9.48724 -6.01311 2.03217e-16 0.0 3.88251e-19 -0.457004 -40.2032 3.48176 0.191509 40.499 -0.765308 1.04029 -10.473 1.83977
-193.579 72.5566 -33.3698 0.0188 -86.5023 19.698 0.965784 31.6578 -3.97022 -1.31101 -5.73105 -1.20223 2.07916 15.8675 0.675766 0.828372 -56.7095 0.513194 -0.0 0.0 0.0 -0.0 0.0 0.0 -6.30313e-14 6.28327e-12 9.14557e-14 58.7915 28.3576 11.9024 -19.8451 -14.2632 35.3441 -0.0596974 -7.86412 -1.11053 -7.04343e-10 -1.03794e-09 1.09074e-09 -1.23085e-09 -1.7964e-09 1.88426e-09 -7.0434e-10 -1.03794e-09 1.09073e-09 7.73091 5.47488 0.417314 -7.04343e-10 -1.03794e-09 1.09074e-09 2.90554 0.965183 0.102902 -7.04335e-10 -1.03794e-09 1.09074e-09 10.2786 0.731801 0.0259123 -7.04347e-10 -1.03794e-09 1.09074e-09 2.22167 -0.733487 -0.20892 -6.30497e-14 6.28327e-12 9.11665e-14 -56.3149 27.9183 -10.9917 17.6069 -11.398 -31.181 0.532276 -22.7944 3.3405 3.69349e-12 -6.35564e-10 -6.57588e-10 2.62058e-11 -1.09898e-09 -1.13914e-09 3.68951e-12 -6.35566e-10 -6.57584e-10 -7.73091 5.47488 -0.417314 3.69235e-12 -6.35566e-10 -6.5759e-10 -2.90554 0.965183 -0.102902 3.68851e-12 -6.35566e-10 -6.57589e-10 -10.2786 0.731801 -0.0259123 3.69999e-12 -6.35564e-10 -6.57598e-10 -2.22167 -0.733487 0.20892 -2.03217e-16 0.0 -3.88251e-19 -2.66142 -54.4942 -6.14635 -0.709516 54.6189 1.13685 -3.7505 -15.5579 -9.04605 2.03217e-16 0.0 3.88251e-19 2.56048 -54.3898 6.42971 0.615768 54.1074 -1.28253 1.46604 -14.4547 2.73653
-193.579 72.5573 -33.3728 -0.2479 -86.4652 19.9634 2.55794 38.5494 -5.24187 -1.45111 -6.99036 -1.43678 2.48166 19.3332 0.838592 1.36854 -69.1131 0.948675 -0.0 0.0 0.0 -0.0 0.0 0.0 -6.99782e-14 7.31314e-12 1.06449e-13 69.7931 34.2119 15.4654 -21.9113 -15.6246 43.5503 -0.1138 -9.57579 -1.35859 -6.39402e-10 -1.00282e-09 1.03266e-09 -1.11812e-09 -1.73587e-09 1.78438e-09 -6.39398e-10 -1.00282e-09 1.03265e-09 7.73091 5.47488 0.417314 -6.39401e-10 -1.00282e-09 1.03266e-09 2.90554 0.965183 0.102902 -6.39394e-10 -1.00282e-09 1.03265e-09 10.2786 0.731801 0.0259123 -6.39404e-10 -1.00282e-09 1.03266e-09 2.22167 -0.733487 -0.20892 -6.99708e-14 7.31315e-12 1.06201e-13 -66.9452 33.743 -14.2535 19.8574 -12.8335 -38.3349 1.05056 -27.7818 4.24617 4.02054e-11 -6.13217e-10 -6.56435e-10 8.87363e-11 -1.06071e-09 -1.13714e-09 4.02014e-11 -6.13219e-10 -6.56428e-10 -7.73091 5.47488 -0.417314 4.02042e-11 -6.13219e-10 -6.56435e-10 -2.90554 0.965183 -0.102902 4.0199e-11 -6.13219e-10 -6.56434e-10 -10.2786 0.731801 -0.0259123 4.02114e-11 -6.13217e-10 -6.56444e-10 -2.22167 -0.733487 0.20892 -2.03217e-16 0.0 -3.88251e-19 -6.5063 -65.8257 -10.6738 -1.66222 67.0259 2.09464 -5.35425 -19.7094 -11.3272 2.03217e-16 0.0 3.88251e-19 6.67503 -64.1645 10.3419 1.24674 63.583 -1.95618 1.84091 -17.2229 3.38983
-193.577 72.5577 -33.3733 -0.2924 -86.4519 20.0161 3.29223 41.2368 -5.81752 -1.51496 -7.4849 -1.52682 2.63411 20.6714 0.902409 1.72242 -73.9331 1.2659 -0.0 0.0 0.0 -0.0 0.0 0.0 -6.63012e-14 7.14629e-12 1.04104e-13 73.8566 36.4309 17.0135 -22.5718 -15.8988 46.7759 -0.138631 -10.2293 -1.45428 -1.66345e-10 -3.8091e-10 3.1594e-10 -2.92238e-10 -6.60219e-10 5.47614e-10 -1.6634e-10 -3.80909e-10 3.15927e-10 7.73091 5.47488 0.417314 -1.66343e-10 -3.80911e-10 3.15939e-10 2.90554 0.965183 0.102902 -1.66337e-10 -3.80911e-10 3.15935e-10 10.2786 0.731801 0.0259123 -1.66347e-10 -3.80912e-10 3.15941e-10 2.22167 -0.733487 -0.20892 -6.63088e-14 7.14629e-12 1.03915e-13 -70.873 35.98 -15.6692 20.6401 -13.2624 -41.2196 1.30631 -29.7608 4.63736 7.32747e-11 -2.2705e-10 -3.20446e-10 1.34311e-10 -3.93905e-10 -5.54896e-10 7.32705e-11 -2.27051e-10 -3.20436e-10 -7.73091 5.47488 -0.417314 7.3274e-11 -2.27051e-10 -3.20444e-10 -2.90554 0.965183 -0.102902 7.32672e-11 -2.27051e-10 -3.20442e-10 -10.2786 0.731801 -0.0259123 7.32799e-11 -2.2705e-10 -3.20455e-10 -2.22167 -0.733487 0.20892 -2.03217e-16 0.0 -3.88251e-19 -9.46782 -70.181 -13.8616 -2.39801 71.8665 2.82367 -6.08566 -21.3112 -12.2786 2.03217e-16 0.0 3.88251e-19 9.23554 -67.935 12.7879 1.65134 67.277 -2.37254 2.00787 -18.3011 3.65844
